<svg xmlns="http://www.w3.org/2000/svg" width="290" height="181" fill="none"><path fill="#ECECEC" d="M0 0h290v181H0z"/><path fill="#666" d="M91.6 153h-2.4l-3.2-5.3-3.3 5.3h-2.2l4.2-6.7-4-6.2h2.4l3 5 3-5h2.2l-4 6.3 4.3 6.6Zm5.4-4v-1.7h16.6v1.7H97Zm33.2 4h-2.5l-3.2-5.3-3.2 5.3H119l4.3-6.7-4-6.2h2.3l3 5 3-5h2.2l-4 6.3 4.4 6.6Zm0-9.7h2.2l2 5.5.6 2.2.4-1.2 2.2-6.5h2.2l-4.1 11c-.8 2-2 3-3.8 3a6 6 0 0 1-1.3-.1v-1.7l1 .1c1 0 1.7-.5 2.1-1.7l.4-.9-4-9.7Zm20.4 13.1h-1.9V153h-6.6v3.4h-2v-5h.8a12 12 0 0 0 1.7-3.6c.4-1.4.6-2.9.7-4.5h6v8.1h1.3v5Zm-3.4-5v-6.5H145a17.9 17.9 0 0 1-2 6.5h4Zm13.9-3.3c0 1.6-.4 2.8-1.3 3.7-.8 1-1.9 1.4-3.4 1.4-.9 0-1.7-.2-2.4-.6a4 4 0 0 1-1.6-1.8 6 6 0 0 1-.5-2.7c0-1.6.4-2.8 1.2-3.7.8-.9 2-1.3 3.4-1.3s2.5.5 3.3 1.4c.9.9 1.3 2 1.3 3.6Zm-7.1 0c0 2.3.8 3.4 2.5 3.4 1.6 0 2.4-1.1 2.4-3.4 0-2.2-.8-3.3-2.4-3.3-1 0-1.5.3-2 .9-.3.5-.5 1.4-.5 2.4Zm14.2-.1v-4.7h2v4.7l3.7-4.7h2.2l-3.8 4.7 4.1 5h-2.2l-4-5v5h-2v-5l-4 5H162l4.1-5-3.8-4.7h2.2l3.7 4.7Zm11.8-4.7v3.9h4.6v-4h2v9.8h-2v-4.2H180v4.2h-2v-9.7h2Zm11.6 0v5c0 .5 0 1.4-.2 2.5l5-7.5h2.4v9.7h-2v-4.9a31 31 0 0 1 .2-2.6L192 153h-2.5v-9.7h2Zm16.2 0h2.3l-4 4.7 4.3 5h-2.3l-4.2-5v5h-2.1v-9.7h2v4.7l4-4.7Z"/><path fill="#999" d="M110 44.2a5 5 0 1 0 0-10 5 5 0 0 0 0 10Zm0-7.1a2.1 2.1 0 1 1 0 4.3 2.1 2.1 0 0 1 0-4.3ZM175 63.5a5 5 0 1 0 10 0 5 5 0 0 0-10 0Zm5-2.2a2.1 2.1 0 1 1 0 4.3 2.1 2.1 0 0 1 0-4.3ZM185.6 48a1.6 1.6 0 1 0 0-3.3 1.6 1.6 0 0 0 0 3.3ZM117.1 53.7a1.6 1.6 0 1 0 0-3.2 1.6 1.6 0 0 0 0 3.2ZM169.9 41.4a1.4 1.4 0 0 0 2 0l1.6-1.6 1.6 1.6a1.4 1.4 0 1 0 2-2l-1.6-1.6 1.6-1.6a1.4 1.4 0 1 0-2-2l-1.6 1.6-1.6-1.6a1.4 1.4 0 1 0-2 2l1.6 1.6-1.6 1.6c-.6.6-.6 1.5 0 2ZM104.2 71.4a1.4 1.4 0 0 0 2 0l1.7-1.6 1.6 1.6a1.4 1.4 0 0 0 2 0c.6-.6.6-1.5 0-2l-1.6-1.6 1.6-1.7a1.4 1.4 0 0 0-2-2l-1.6 1.6-1.6-1.6a1.4 1.4 0 1 0-2 2l1.6 1.7-1.7 1.6c-.5.5-.5 1.4 0 2ZM152.8 72a1.4 1.4 0 1 0 0-2.8 1.4 1.4 0 0 0 0 2.8ZM138.6 72a1.4 1.4 0 1 0 0-2.8 1.4 1.4 0 0 0 0 2.8Z"/><path fill="#999" d="M185 93.7c-1.8-1.3-1.9-3.5-2-6-.4-4-.7-9-8.6-10-4-.4-8 .8-11.3 3.7a18.1 18.1 0 0 0-5.4 9.1L152 88v-1.2c5.5-2.6 9.6-7.5 11.3-13.3 1 0 1.8-.3 2.7-.8a5 5 0 0 0 2.4-3.6 5 5 0 0 0-3.7-5.4v-1.3l.1-6.4c.4 0 .7 0 1-.2 1-.3 1.9-1 2.4-2.2 1.9-3.9-1.4-9.4-7.7-13.6a5 5 0 0 0-2.5-6.3 5 5 0 0 0-6.5 2c-7.2-2.3-13.6-1.4-15.4 2.5a4 4 0 0 0-.3 2.7c-6.2 2.7-9.5 8-9.5 15v2.3l.1 4v1.5a5 5 0 0 0-3.6 5c0 1.5.9 3 2.3 3.9.9.6 1.7.9 2.7.9 1.5 5.4 5.1 10 10 12.8V88l-11.4 5.2a14.8 14.8 0 0 0-8.6 13.5v11.7c0 .8.6 1.4 1.4 1.4h51.4c.7 0 1.4-.6 1.4-1.4v-6.6l2.1.2c6.3 0 13-4 14.6-9 .7-1.9 1-5.7-3.7-9.3Zm-29.8-57.6a2.1 2.1 0 0 1 2.8 2.3 35.6 35.6 0 0 0-3.6-1.7l.8-.6Zm-16.5 3.3c.7-1.3 2.7-2.1 5.5-2.1 3 0 6.7.8 10.8 2.8 8 3.8 12 9.5 10.7 12.3-.2.5-.5.7-.7.7-1.7.6-5.6-1.3-9.8-3.4l-3.2-1.6-3.3-1.5c-4.6-2.2-9.4-4.4-10-6.2-.2-.4-.1-.6 0-1Zm-1.4 4c2 2 5.7 3.7 10.2 5.8l3.2 1.5 3.2 1.6c3.3 1.6 6 2.9 8.2 3.5v5.4a16.7 16.7 0 0 1-13.7 3.4c-4-.9-7.5-3.5-9.3-7.1a1.4 1.4 0 0 0-2.3-.4c-1.8 2-4.5 3-7.5 3.2v-4.5c0-7.4 4.2-10.8 8-12.5Zm-7 28.2a1.4 1.4 0 0 0-1.8-1.1c-.5.2-1 .2-1.7-.3-.7-.4-1-1-1-1.6a2.1 2.1 0 0 1 2-2.3c.4 0 .8-.1 1-.4.5-.4.6-.8.6-2.7 3-.2 5.9-1.2 8-2.9a16.5 16.5 0 0 0 14.2 7.5c3.5 0 7.1-1.1 10.4-3.2 0 .7.2 1 .5 1.3.3.3.6.4 1 .4a2.1 2.1 0 0 1 2.1 2.5c0 .5-.4 1.1-1 1.5-.6.4-1.1.4-1.8.2-.4-.2-.8-.1-1.2 0-.3.3-.6.6-.7 1a18.5 18.5 0 0 1-12.3 13.6l-.6.2c-1.8.6-3.6.6-5.2 0-6.3-2-11-7.2-12.4-13.7ZM142 88a10.9 10.9 0 0 0 7 0l.3-.2v.5a4.3 4.3 0 0 1-8.5 0v-.8l1.2.5Zm27.3 28.9h-8.5v-7.2a1.4 1.4 0 1 0-2.9 0v7.2h-27.1v-7.2a1.4 1.4 0 1 0-2.9 0v7.2h-7v-10.3c0-4.7 2.6-9 6.8-11l10.7-4.8a7.1 7.1 0 0 0 13.3 0l5.6 2.5-.1 1.5c0 7.7 5.1 14.2 12.1 16.3v5.8Zm16.9-14.8c-1.2 3.6-6.9 7-11.9 7-7.9 0-14.3-6.5-14.3-14.3 0-4.3 2-8.6 5.1-11.4a11.6 11.6 0 0 1 9-3c5.6.8 5.8 3.5 6 7.3.3 2.9.5 6 3.3 8.2 2.6 2 3.5 4 2.8 6.2Z"/><path fill="#999" d="M180 96.4a4.2 4.2 0 1 0 0 8.4 4.2 4.2 0 0 0 0-8.4Zm0 5.5a1.4 1.4 0 1 1 0-2.7 1.4 1.4 0 0 1 0 2.7ZM171.4 82.6a3.7 3.7 0 1 0 0 7.4 3.7 3.7 0 0 0 0-7.4Zm0 4.6a.9.9 0 0 1 0-1.8.9.9 0 0 1 0 1.8ZM168.7 94.2a3.7 3.7 0 1 0-7.5 0 3.7 3.7 0 0 0 7.5 0Zm-3.8.8a.9.9 0 0 1 0-1.7.9.9 0 0 1 0 1.7ZM170 99.7a3.7 3.7 0 1 0 0 7.5 3.7 3.7 0 0 0 0-7.5Zm0 4.6a.9.9 0 0 1 0-1.8.9.9 0 0 1 0 1.8ZM113.9 84.7l-.8-.8c-1-1.1-1.8-2.2-1.8-3.5 0-1.8-1-2.3-1.5-2.5-2.2-.5-4.8 3.8-6.2 6.5a14 14 0 0 0-1.8 5.3c0 2.8 1.5 5.2 3.8 6.5l-.8 18.3c-.1 1.5.4 3 1.4 4 .8.8 2 1.3 3.1 1.3 1.2 0 2.3-.5 3.1-1.3 1-1 1.5-2.5 1.5-4l-.9-18.3a7.5 7.5 0 0 0 3.8-6.5c0-2.1-1.5-3.6-2.9-5Zm-5.3-3c.2 1.3.8 2.3 1.5 3.1-.5.4-1 .6-1.5.6-.6 0-1.4-.3-2-.7l2-3Zm2.4 33c0 .7-.2 1.3-.6 1.8-.2.2-.6.5-1.1.5-.5 0-.8-.3-1-.5-.5-.5-.7-1.1-.7-1.8l.8-17.6.9.1h1l.7 17.5Zm-1.7-20.3c-2.6 0-4.6-2.1-4.6-4.7 0-.4.2-1.2.7-2.5a5.8 5.8 0 0 0 3.3 1c1.2 0 2.3-.4 3.3-1.3 1 1 2 2 2 2.8 0 2.6-2.1 4.7-4.7 4.7Z"/></svg>