<svg xmlns="http://www.w3.org/2000/svg" width="97" height="22" fill="none"><path fill="#fff" d="m1.56 17.8-1.4-1.98h1.01l.95 1.42.96-1.42h1l-1.4 1.98 1.48 2.07h-1l-1.04-1.51-1.02 1.51h-1l1.46-2.07ZM4.25 15.82h.97l.85 2.3c.13.32.21.63.25.92h.03l.13-.49.96-2.73h.95l-1.78 4.59c-.32.84-.86 1.26-1.62 1.26-.2 0-.39-.02-.57-.06v-.68c.13.03.28.04.45.04.43 0 .73-.24.9-.72l.16-.38-1.68-4.05ZM13.03 21.3h-.83v-1.43H9.34v1.43h-.81v-2.1h.34c.3-.4.53-.9.7-1.49.18-.58.28-1.21.31-1.89h2.54v3.38h.6v2.1Zm-1.48-2.1v-2.72h-.9c-.05.5-.15 1-.3 1.49s-.34.9-.56 1.23h1.76ZM17.5 17.84c0 .66-.18 1.18-.52 1.55a1.9 1.9 0 0 1-1.46.55c-.4 0-.74-.08-1.04-.25-.3-.17-.53-.42-.69-.74-.16-.32-.24-.69-.24-1.11 0-.66.18-1.17.52-1.54.35-.37.84-.55 1.47-.55.6 0 1.08.19 1.43.57.35.37.53.88.53 1.52Zm-3.04 0c0 .93.36 1.4 1.07 1.4.7 0 1.06-.47 1.06-1.4 0-.92-.36-1.39-1.07-1.39-.37 0-.64.12-.8.36a1.8 1.8 0 0 0-.26 1.03ZM20.58 17.79v-1.97h.82v1.97l1.6-1.97h.94l-1.64 1.96 1.79 2.1h-.98l-1.7-2.06v2.05h-.83v-2.05l-1.71 2.05h-.97l1.78-2.09-1.64-1.96h.94l1.6 1.97ZM26.56 19.94c-.65 0-1.16-.18-1.53-.54a2.06 2.06 0 0 1-.54-1.52c0-.66.17-1.18.5-1.56.34-.38.81-.57 1.4-.57.55 0 .99.16 1.3.49.33.32.49.77.49 1.34v.46H25.4c.01.4.12.7.33.9.2.22.5.32.87.32a3.37 3.37 0 0 0 1.37-.29v.7c-.22.1-.44.17-.66.21-.22.04-.47.06-.75.06Zm-.17-3.54c-.28 0-.5.09-.68.26-.16.17-.26.43-.3.76h1.9c0-.34-.1-.59-.25-.76a.86.86 0 0 0-.67-.26ZM30.87 19.94c-.64 0-1.12-.17-1.45-.53-.32-.36-.49-.87-.49-1.54 0-.68.18-1.2.52-1.57.34-.37.84-.55 1.49-.55.44 0 .83.08 1.18.24l-.26.69a2.75 2.75 0 0 0-.93-.21c-.72 0-1.08.46-1.08 1.4 0 .45.09.79.26 1.02.19.22.45.34.8.34.4 0 .76-.1 1.12-.29v.75c-.16.1-.33.16-.51.2-.18.03-.4.05-.65.05ZM36.14 15.82v.68h-1.36v3.37h-.89V16.5h-1.35v-.68h3.6ZM40.56 16.86c0 .48-.29.77-.86.87v.03c.32.03.57.13.74.3.17.15.25.36.25.62 0 .38-.15.68-.45.88-.3.2-.73.31-1.3.31h-2v-4.05h1.99c1.09 0 1.63.35 1.63 1.04Zm-.77 1.77c0-.2-.08-.34-.24-.42a1.54 1.54 0 0 0-.7-.12h-1.02v1.14h1.04c.61 0 .92-.2.92-.6Zm-.11-1.7c0-.16-.07-.27-.2-.35a1.2 1.2 0 0 0-.58-.1h-1.07v.97h.94c.3 0 .52-.04.68-.11.15-.08.23-.21.23-.4ZM43.43 19.94c-.65 0-1.15-.18-1.52-.54a2.06 2.06 0 0 1-.55-1.52c0-.66.17-1.18.51-1.56.34-.38.8-.57 1.4-.57.55 0 .98.16 1.3.49.32.32.48.77.48 1.34v.46h-2.78c.02.4.13.7.33.9.2.22.5.32.87.32a3.37 3.37 0 0 0 1.38-.29v.7c-.22.1-.44.17-.66.21-.22.04-.47.06-.76.06Zm-.16-3.54c-.28 0-.5.09-.68.26-.17.17-.27.43-.3.76h1.9c-.01-.34-.1-.59-.26-.76a.86.86 0 0 0-.66-.26ZM46.95 15.82v1.63h1.96v-1.63h.89v4.05h-.89v-1.74h-1.96v1.74h-.89v-4.05h.89ZM51.95 15.82v1.63h1.97v-1.63h.88v4.05h-.88v-1.74h-1.97v1.74h-.88v-4.05h.88ZM58.68 19.87l-.17-.56h-.03c-.2.24-.4.41-.61.5a2 2 0 0 1-.79.13c-.4 0-.73-.1-.96-.32a1.19 1.19 0 0 1-.34-.9c0-.43.16-.74.48-.95.32-.22.8-.33 1.46-.35l.72-.02v-.22c0-.26-.07-.45-.2-.58-.11-.13-.3-.2-.57-.2-.21 0-.42.04-.61.1-.2.06-.39.13-.57.22l-.28-.62a3.45 3.45 0 0 1 1.5-.35c.53 0 .93.11 1.2.34.27.22.4.57.4 1.05v2.73h-.63Zm-1.32-.58c.32 0 .58-.1.78-.26.2-.18.29-.43.29-.74v-.35l-.54.02c-.41.02-.72.08-.9.2-.2.13-.3.3-.3.56.01.18.06.32.18.42.1.1.27.15.5.15ZM60.98 19.87h-1l1.17-1.66c-.28-.07-.5-.21-.67-.41-.16-.2-.24-.46-.24-.75 0-.39.14-.69.43-.9.28-.22.66-.33 1.15-.33h1.9v4.05h-.89v-1.56h-.84l-1.01 1.56Zm.13-2.82c0 .21.08.37.24.47.16.1.38.16.65.16h.83v-1.2h-.97a.92.92 0 0 0-.56.14.5.5 0 0 0-.2.43ZM69.69 15.82v.68h-1.81v3.37h-.89v-4.05h2.7ZM73.1 19.87l-.18-.56h-.03c-.2.24-.4.41-.6.5a2 2 0 0 1-.79.13c-.4 0-.73-.1-.96-.32a1.19 1.19 0 0 1-.34-.9c0-.43.16-.74.48-.95.32-.22.8-.33 1.46-.35l.72-.02v-.22c0-.26-.07-.45-.2-.58-.12-.13-.3-.2-.57-.2-.21 0-.42.04-.61.1-.2.06-.39.13-.57.22l-.29-.62a3.45 3.45 0 0 1 1.5-.35c.54 0 .94.11 1.2.34.28.22.41.57.41 1.05v2.73h-.63Zm-1.32-.58c.32 0 .58-.1.77-.26.2-.18.3-.43.3-.74v-.35l-.54.02c-.41.02-.72.08-.91.2-.19.13-.28.3-.28.56 0 .18.05.32.16.42.11.1.28.15.5.15ZM78.4 19.87h-.9V16.5h-1.15c-.07.87-.16 1.54-.28 2.03-.12.49-.28.85-.47 1.07a.93.93 0 0 1-.75.34c-.19 0-.35-.03-.48-.08v-.68c.09.04.18.05.28.05.25 0 .45-.28.6-.83.15-.56.26-1.42.35-2.58h2.8v4.05ZM81.49 19.94c-.65 0-1.16-.18-1.52-.54a2.06 2.06 0 0 1-.55-1.52c0-.66.17-1.18.5-1.56.35-.38.81-.57 1.4-.57.56 0 1 .16 1.31.49.32.32.48.77.48 1.34v.46h-2.78c.01.4.12.7.33.9.2.22.5.32.87.32a3.37 3.37 0 0 0 1.37-.29v.7c-.21.1-.43.17-.65.21-.22.04-.48.06-.76.06Zm-.16-3.54c-.28 0-.51.09-.68.26-.17.17-.27.43-.3.76h1.89c0-.34-.09-.59-.25-.76a.86.86 0 0 0-.66-.26ZM86.23 19.94c-.53 0-.94-.18-1.23-.55h-.05c.04.34.05.55.05.62v1.66h-.88v-5.85h.71l.13.55H85c.28-.41.7-.62 1.25-.62.52 0 .92.18 1.21.55.3.37.44.88.44 1.54s-.15 1.18-.45 1.55c-.29.37-.7.55-1.22.55Zm-.21-3.49c-.35 0-.61.1-.78.3-.16.2-.24.52-.24.96v.13c0 .5.08.85.24 1.07.17.22.43.33.8.33a.8.8 0 0 0 .7-.36c.17-.25.25-.6.25-1.05 0-.45-.08-.8-.25-1.03a.83.83 0 0 0-.72-.35ZM90.75 19.94c-.65 0-1.16-.18-1.52-.54a2.06 2.06 0 0 1-.55-1.52c0-.66.17-1.18.5-1.56.35-.38.81-.57 1.4-.57.56 0 1 .16 1.31.49.32.32.48.77.48 1.34v.46H89.6c.01.4.12.7.33.9.2.22.5.32.87.32a3.37 3.37 0 0 0 1.37-.29v.7c-.21.1-.43.17-.65.21-.22.04-.48.06-.76.06Zm-.16-3.54c-.28 0-.51.09-.68.26-.17.17-.27.43-.3.76h1.89c0-.34-.09-.59-.25-.76a.86.86 0 0 0-.66-.26ZM93.8 19.87h-.99l1.16-1.66c-.28-.07-.5-.21-.66-.41-.16-.2-.24-.46-.24-.75 0-.39.14-.69.42-.9.28-.22.67-.33 1.15-.33h1.9v4.05h-.89v-1.56h-.84l-1 1.56Zm.13-2.82c0 .21.08.37.24.47.17.1.38.16.66.16h.82v-1.2h-.96a.92.92 0 0 0-.56.14.5.5 0 0 0-.2.43ZM0 11.73h6.52c2.58 0 3.9-1.13 3.9-3.28V8.4c0-1.6-.84-2.57-2.46-2.85v-.15c1.36-.25 2.06-1.1 2.06-2.5v-.04C10.02.98 8.8 0 6.4 0H0v11.73ZM2.57 4.8V1.66h3.05c1.23 0 1.84.52 1.84 1.54v.03c0 1.04-.61 1.57-1.84 1.57H2.57Zm0 5.26V6.33H5.7c1.35 0 2.02.62 2.02 1.83v.03c0 1.24-.67 1.87-2.02 1.87H2.57ZM12.84 0v11.73h2.54V0h-2.54ZM20.69 11.95c2.05 0 3.54-.88 4.09-2.37l.17.04c-.33 1.62.02 2.33 2.03 2.33.25 0 .5-.03.71-.06l.3-1.45h-.44c-.48-.02-.62-.13-.62-.72V5.69c0-2-1.37-2.95-4.31-2.95-3.13 0-4.7 1.18-4.57 3.23l2.5.2c-.1-1.35.61-1.96 2.01-1.96 1.26 0 1.85.44 1.85 1.45v.5l-2.47.43c-2.48.45-4.12 1.2-4.12 3.05v.02c0 1.46 1.03 2.29 2.87 2.29Zm1.01-1.63c-.85 0-1.32-.29-1.32-.9v-.01c0-.86.81-1.22 2.42-1.52l1.61-.3V8c0 1.35-1.26 2.32-2.7 2.32ZM30.13 11.73h2.53V7.64c0-1.98.97-3.2 2.58-3.2 1.2 0 1.79.6 1.79 1.74v5.55h2.53V5.6c0-1.84-1.12-2.82-3.21-2.82-1.9 0-3.2.8-3.97 2.48l-.18-.07c.35-1 .47-1.6.47-2.25h-2.54v8.8ZM47.12 11.94c2.99 0 4.66-1.16 4.92-3.4l-2.57-.27c-.1 1.4-.9 2.12-2.34 2.12-1.62 0-2.45-.97-2.45-2.9v-.4c0-1.88.84-2.83 2.42-2.83 1.46 0 2.22.78 2.33 2.34l2.53-.27c-.2-2.38-1.82-3.6-4.85-3.6-3.3 0-5.03 1.54-5.03 4.5v.12c0 3.01 1.71 4.59 5.04 4.59ZM54.57 11.73h2.53V7.64c0-1.98.96-3.2 2.58-3.2 1.2 0 1.79.6 1.79 1.74v5.55H64V5.6c0-1.84-1.13-2.82-3.21-2.82-1.92 0-3.21.8-3.97 2.48l-.19-.07c.34-.94.47-1.64.47-2.47V0h-2.53v11.73ZM69.27 11.95c2.05 0 3.54-.88 4.1-2.37l.17.04c-.33 1.62.02 2.33 2.02 2.33.25 0 .5-.03.72-.06l.3-1.45h-.44c-.48-.02-.62-.13-.62-.72V5.69c0-2-1.38-2.95-4.32-2.95-3.12 0-4.7 1.18-4.57 3.23l2.5.2c-.1-1.35.61-1.96 2.02-1.96 1.25 0 1.85.44 1.85 1.45v.5l-2.48.43c-2.48.45-4.12 1.2-4.12 3.05v.02c0 1.46 1.03 2.29 2.87 2.29Zm1.01-1.63c-.85 0-1.31-.29-1.31-.9v-.01c0-.86.8-1.22 2.41-1.52L73 7.6V8c0 1.35-1.27 2.32-2.72 2.32ZM78.7 11.73h2.55V8.05c0-2.3.74-3.14 2.68-3.27l1.24-.1-.3-2.02c-2.04.15-3 .77-3.94 2.6l-.16-.08c.4-1.17.5-1.64.49-2.25H78.7v8.8ZM90.78 11.89c1.89 0 3.12-.84 3.73-2.35l.19.05c-.3.93-.46 1.65-.46 2.14h2.56V0h-2.54v2.39c0 .92.13 1.67.45 2.68l-.18.07c-.62-1.51-1.86-2.38-3.75-2.38-2.62 0-4 1.53-4 4.46v.21c0 2.93 1.38 4.46 4 4.46Zm.96-1.5c-1.57 0-2.39-.97-2.39-2.87v-.39c0-1.91.82-2.88 2.4-2.88 1.63 0 2.51 1.02 2.51 2.92v.3c0 1.9-.88 2.91-2.52 2.91Z"/></svg>